<svg id="Capa_1" enable-background="new 0 0 512 512" height="512" viewBox="0 0 512 512" width="512" xmlns="http://www.w3.org/2000/svg" xmlns:xlink="http://www.w3.org/1999/xlink"><linearGradient id="SVGID_1_" gradientUnits="userSpaceOnUse" x1="37.44" x2="526.903" y1="147.517" y2="387.918"><stop offset="0" stop-color="#d2deff" stop-opacity="0"/><stop offset="1" stop-color="#b7c5ff"/></linearGradient><g><path d="m408.229 154.262c-23.697-9.236-43.717-26.089-55.961-48.381-20.59-37.487-60.43-62.898-106.221-62.898-47.53 0-88.646 27.377-108.477 67.219-12.146 24.401-32.814 43.56-58.09 53.761-37.349 15.074-68.703 49.524-78.653 103.382-1.092 5.91-1.108 11.986-.016 17.896 15.448 83.572 82.399 120.435 143.334 110.66 34.126-5.474 68.672 5.909 93.967 29.462 51.434 47.892 133.884 62.907 213.923 11.57 9.377-6.014 21.957-18.634 27.966-28.015 68.966-107.67 17.879-219.714-71.772-254.656z" fill="url(#SVGID_1_)"/><path d="m456.001 99.539v254.25c0 8.28-6.72 15-15 15h-370c-8.28 0-15-6.72-15-15v-254.25c0-8.28 6.72-15 15-15h370c8.28 0 15 6.719 15 15z" fill="#2626bc" opacity=".1"/><path d="m312.711 462.495h-113.421l22.682-89.904h68.057z" fill="#fff"/><path d="m456.001 120.542v254.25c0 8.28-6.72 15-15 15h-370c-8.28 0-15-6.72-15-15v-254.25c0-8.28 6.72-15 15-15h370c8.28 0 15 6.72 15 15z" fill="#fff"/><path d="m130.871 153.713h250.26v185.686h-250.26z" fill="#fff"/><path d="m456.001 153.713v-33.171c0-8.284-6.716-15-15-15h-370c-8.284 0-15 6.716-15 15v33.171z" fill="#fff"/><path d="m56.001 339.399v35.39c0 8.284 6.716 15 15 15h370c8.284 0 15-6.716 15-15v-35.39z" fill="#fff"/><g fill="#2626bc"><path d="m94.083 124.555c-2.762 0-5 2.238-5 5v.146c0 2.762 2.238 5 5 5s5-2.238 5-5v-.146c0-2.762-2.238-5-5-5z"/><path d="m113.408 124.555c-2.762 0-5 2.238-5 5v.146c0 2.762 2.238 5 5 5s5-2.238 5-5v-.146c0-2.762-2.238-5-5-5z"/><path d="m132.732 124.555c-2.762 0-5 2.238-5 5v.146c0 2.762 2.238 5 5 5s5-2.238 5-5v-.146c0-2.762-2.238-5-5-5z"/><path d="m441.001 100.541h-370c-11.028 0-20 8.972-20 20v33.172c0 2.762 2.238 5 5 5h395v153.146c0 2.762 2.238 5 5 5s5-2.238 5-5v-191.318c0-11.028-8.972-20-20-20zm10 48.172h-390v-28.172c0-5.514 4.486-10 10-10h370c5.514 0 10 4.486 10 10z"/><path d="m456.001 334.399h-395v-153.146c0-2.762-2.238-5-5-5s-5 2.238-5 5v193.536c0 11.028 8.972 20 20 20h140.215l-15.819 62.701h-15.329c-2.762 0-5 2.238-5 5s2.238 5 5 5h151.867c2.762 0 5-2.238 5-5s-2.238-5-5-5h-15.33l-15.819-62.701h140.215c11.028 0 20-8.972 20-20v-35.39c0-2.761-2.238-5-5-5zm-149.709 123.091h-100.583l15.819-62.701h68.946zm144.709-82.701c0 5.514-4.486 10-10 10h-370c-5.514 0-10-4.486-10-10v-30.39h390z"/></g><path d="m130.871 153.713v185.686" fill="none" stroke="#2626bc" stroke-miterlimit="10" stroke-width="10"/><path d="m379.2 153.713v185.686" fill="none" stroke="#2626bc" stroke-miterlimit="10" stroke-width="10"/><g fill="#6583fe"><path d="m210.435 184.432c-4.778 0-8.652 3.873-8.652 8.652v13.731h-9.729v-13.731c0-4.779-3.874-8.652-8.652-8.652s-8.652 3.873-8.652 8.652v22.383c0 4.779 3.874 8.652 8.652 8.652h18.381v19.916c0 4.779 3.874 8.652 8.652 8.652s8.652-3.873 8.652-8.652v-50.95c0-4.78-3.874-8.653-8.652-8.653z"/><path d="m328.599 184.432c-4.778 0-8.652 3.873-8.652 8.652v13.731h-9.729v-13.731c0-4.779-3.874-8.652-8.652-8.652s-8.652 3.873-8.652 8.652v22.383c0 4.779 3.874 8.652 8.652 8.652h18.381v19.916c0 4.779 3.874 8.652 8.652 8.652s8.652-3.873 8.652-8.652v-50.95c0-4.78-3.874-8.653-8.652-8.653z"/><path d="m260.863 183.898h-9.224c-11.261 0-20.423 9.162-20.423 20.423v28.476c0 11.261 9.162 20.423 20.423 20.423h9.224c11.261 0 20.423-9.162 20.423-20.423v-28.476c0-11.261-9.162-20.423-20.423-20.423zm3.12 48.899c0 1.72-1.399 3.119-3.119 3.119h-9.224c-1.72 0-3.119-1.399-3.119-3.119v-28.476c0-1.72 1.399-3.119 3.119-3.119h9.224c1.72 0 3.119 1.399 3.119 3.119z"/><path d="m387.983 294.083c-1.279 0-2.56-.488-3.535-1.465-1.135-1.135-2.644-1.759-4.248-1.759s-3.113.624-4.248 1.759c-1.951 1.953-5.119 1.953-7.07 0-.977-.976-1.465-2.256-1.465-3.535s.488-2.56 1.465-3.535c1.135-1.135 1.759-2.644 1.759-4.248s-.624-3.113-1.759-4.248c-.977-.976-1.465-2.256-1.465-3.535s.488-2.56 1.465-3.535c1.951-1.953 5.119-1.953 7.07 0 1.135 1.135 2.644 1.759 4.248 1.759s3.113-.624 4.248-1.759c1.951-1.953 5.119-1.953 7.07 0 .977.976 1.465 2.256 1.465 3.535s-.488 2.56-1.465 3.535c-1.135 1.135-1.759 2.644-1.759 4.248s.624 3.113 1.759 4.248c.977.976 1.465 2.256 1.465 3.535s-.488 2.56-1.465 3.535c-.975.977-2.255 1.465-3.535 1.465z"/><path d="m387.983 258.22c-1.279 0-2.56-.488-3.535-1.465-1.135-1.135-2.644-1.76-4.248-1.76s-3.113.625-4.248 1.76c-1.951 1.953-5.119 1.953-7.07 0-.977-.976-1.465-2.256-1.465-3.535s.488-2.56 1.465-3.535c1.135-1.135 1.759-2.644 1.759-4.248s-.624-3.112-1.759-4.246c-.977-.977-1.465-2.256-1.465-3.535 0-1.28.488-2.56 1.464-3.536 1.953-1.953 5.118-1.952 7.071-.001 2.342 2.342 6.154 2.342 8.496 0 1.953-1.953 5.118-1.952 7.071.001.976.977 1.464 2.256 1.464 3.536 0 1.279-.488 2.559-1.465 3.535-1.135 1.134-1.759 2.642-1.759 4.246s.624 3.113 1.759 4.248c.977.976 1.465 2.256 1.465 3.535s-.488 2.56-1.465 3.535c-.975.976-2.255 1.465-3.535 1.465z"/><path d="m139.585 237.792c-1.279 0-2.559-.488-3.535-1.464-2.342-2.342-6.154-2.342-8.496 0-1.954 1.951-5.119 1.951-7.071-.001-.976-.977-1.464-2.256-1.464-3.536 0-1.279.488-2.559 1.465-3.535 1.135-1.134 1.759-2.643 1.759-4.246 0-1.604-.624-3.113-1.759-4.247-.977-.977-1.465-2.256-1.465-3.535 0-1.28.488-2.56 1.464-3.536 1.953-1.953 5.118-1.952 7.071-.001 2.342 2.342 6.154 2.342 8.496 0 1.954-1.953 5.119-1.952 7.071.001.976.977 1.464 2.256 1.464 3.536 0 1.279-.488 2.559-1.465 3.535-1.135 1.134-1.759 2.643-1.759 4.247s.624 3.112 1.759 4.246c.977.977 1.465 2.256 1.465 3.535 0 1.28-.488 2.56-1.464 3.536-.976.977-2.257 1.465-3.536 1.465z"/><path d="m139.585 201.929c-1.279 0-2.559-.488-3.535-1.464-2.342-2.342-6.154-2.342-8.496 0-1.954 1.951-5.119 1.951-7.071-.001-.976-.977-1.464-2.256-1.464-3.536 0-1.279.488-2.559 1.465-3.535 1.135-1.134 1.759-2.643 1.759-4.246 0-1.604-.624-3.113-1.759-4.248-.977-.976-1.465-2.256-1.465-3.535s.488-2.56 1.465-3.535c1.951-1.953 5.119-1.953 7.07 0 1.135 1.135 2.644 1.759 4.248 1.759s3.113-.624 4.248-1.759c1.951-1.953 5.119-1.953 7.07 0 .977.976 1.465 2.256 1.465 3.535s-.488 2.56-1.465 3.535c-1.135 1.135-1.759 2.644-1.759 4.248s.624 3.112 1.759 4.246c.977.977 1.465 2.256 1.465 3.535 0 1.28-.488 2.56-1.464 3.536s-2.257 1.465-3.536 1.465z"/></g><path d="m235.93 290.128h90.087c2.833 0 5.129-2.296 5.129-5.129 0-2.832-2.296-5.129-5.129-5.129h-90.087c-2.833 0-5.129 2.296-5.129 5.129s2.296 5.129 5.129 5.129z" fill="#2626bc"/><path d="m185.985 290.128h24.606c2.833 0 5.129-2.296 5.129-5.129 0-2.832-2.296-5.129-5.129-5.129h-24.606c-2.833 0-5.129 2.296-5.129 5.129.001 2.833 2.297 5.129 5.129 5.129z" fill="#2626bc"/><path d="m185.985 310.472h140.031c2.833 0 5.129-2.296 5.129-5.129 0-2.832-2.296-5.129-5.129-5.129h-140.031c-2.833 0-5.129 2.296-5.129 5.129.001 2.833 2.297 5.129 5.129 5.129z" fill="#2626bc"/><path d="m343.139 76.494c-1.279 0-2.559-.488-3.535-1.464l-10.995-10.994c-.938-.938-1.465-2.21-1.465-3.536s.526-2.598 1.465-3.535l10.995-10.995c1.951-1.953 5.119-1.953 7.07 0l10.995 10.995c.938.938 1.465 2.209 1.465 3.535s-.527 2.598-1.465 3.536l-10.995 10.994c-.977.976-2.256 1.464-3.535 1.464zm-3.924-15.994 3.924 3.924 3.924-3.924-3.924-3.924z" fill="#6583fe"/><path d="m132.732 460.512c-1.279 0-2.56-.488-3.535-1.465l-10.995-10.995c-.938-.938-1.465-2.209-1.465-3.535s.527-2.598 1.465-3.536l10.995-10.994c1.953-1.951 5.117-1.951 7.07 0l10.995 10.994c.938.938 1.465 2.21 1.465 3.536s-.526 2.598-1.465 3.535l-10.995 10.995c-.975.976-2.255 1.465-3.535 1.465zm-3.923-15.995 3.924 3.924 3.924-3.924-3.924-3.924z" fill="#6583fe"/><path d="m363.205 439.538c-1.279 0-2.56-.488-3.535-1.465l-10.995-10.995c-.938-.938-1.465-2.209-1.465-3.535s.527-2.598 1.465-3.536l10.995-10.994c1.953-1.951 5.117-1.951 7.07 0l10.995 10.994c.938.938 1.465 2.21 1.465 3.536s-.526 2.598-1.465 3.535l-10.995 10.995c-.975.977-2.256 1.465-3.535 1.465zm-3.924-15.995 3.924 3.924 3.924-3.924-3.924-3.924z" fill="#6583fe"/><path d="m413.027 466.512c-1.279 0-2.56-.488-3.535-1.465l-10.995-10.995c-.938-.938-1.465-2.209-1.465-3.535s.527-2.598 1.465-3.536l10.995-10.994c1.953-1.951 5.117-1.951 7.07 0l10.995 10.994c.938.938 1.465 2.21 1.465 3.536s-.526 2.598-1.465 3.535l-10.995 10.995c-.975.976-2.255 1.465-3.535 1.465zm-3.923-15.995 3.924 3.924 3.924-3.924-3.924-3.924z" fill="#6583fe"/></g></svg>